# xmcd
#
# Track frame offsets:
#	150
#	16133
#	33900
#	49434
#	68699
#	82509
#	100084
#	117185
#	132575
#	152886
#	164686
#	176074
#	191287
#	206845
#	225128
#	246392
#	264623
#	278773
#	297277
#	313241
#	326628
#	346294
#
# Disc length: 4799 seconds
#
# Revision: 0
# Processed by: cddbd v1.5.2PL0 Copyright (c) Steve Scherf et al.
# Submitted via: EasyCDDAExtractor 11.0.2.1
#
DISCID=3b12bd16
DTITLE=Лев Лещенко - Grand Collection
DYEAR=2005
DGENRE=Pop
TTITLE0=Родная земля
TTITLE1=День победы
TTITLE2=Я сегодня до зари встану
TTITLE3=Старые качели
TTITLE4=Татьянин день
TTITLE5=Где же ты была
TTITLE6=Соловьиная роща
TTITLE7=Родительский дом
TTITLE8=Где мой дом родной
TTITLE9=Почему ты мне не встретилась
TTITLE10=Песня о вечном движении
TTITLE11=Напиши мне письмо
TTITLE12=Ни минуты покоя
TTITLE13=Городские цветы
TTITLE14=Нам не жить друг без друга
TTITLE15=Горький мед
TTITLE16=Не плачь, девчонка
TTITLE17=Прощай
TTITLE18=Свадебные кони
TTITLE19=До свидания, Москва
TTITLE20=Притяжение земли
TTITLE21=Качели
EXTD=
EXTT0=
EXTT1=
EXTT2=
EXTT3=
EXTT4=
EXTT5=
EXTT6=
EXTT7=
EXTT8=
EXTT9=
EXTT10=
EXTT11=
EXTT12=
EXTT13=
EXTT14=
EXTT15=
EXTT16=
EXTT17=
EXTT18=
EXTT19=
EXTT20=
EXTT21=
PLAYORDER=
